<svg version="1.1" xmlns="http://www.w3.org/2000/svg" viewBox="0 0 783.0000000000002 605" width="2349.000000000001" height="1815">
  <!-- svg-source:excalidraw -->
  
  <defs>
    <style class="style-fonts">
      @font-face {
        font-family: "Virgil";
        src: url("https://excalidraw.com/Virgil.woff2");
      }
      @font-face {
        font-family: "Cascadia";
        src: url("https://excalidraw.com/Cascadia.woff2");
      }
      @font-face {
        font-family: "Assistant";
        src: url("https://excalidraw.com/Assistant-Regular.woff2");
      }
    </style>
    
  </defs>
  <g stroke-linecap="round" transform="translate(10 10) rotate(0 81.5 32.5)"><path d="M0 0 C39.61 1.25, 81.41 -0.68, 163 0 M0 0 C52.69 1.28, 107.73 1.14, 163 0 M163 0 C161.66 13.36, 164.13 31.24, 163 65 M163 0 C162.97 18.45, 163.27 38.76, 163 65 M163 65 C103.42 65.28, 47.45 62.12, 0 65 M163 65 C120.87 64.31, 79.17 63.85, 0 65 M0 65 C-1.21 45.34, 0.28 26.05, 0 0 M0 65 C0.84 41.58, 1.43 16.67, 0 0" stroke="#868e96" stroke-width="2" fill="none"></path></g><g stroke-linecap="round" transform="translate(10 530) rotate(0 81.5 32.5)"><path d="M0 0 C52.07 -1.64, 104.64 0.66, 163 0 M0 0 C37.08 -0.15, 72.11 -0.05, 163 0 M163 0 C163.7 23.75, 162.48 44.45, 163 65 M163 0 C163.31 14.49, 163.6 28.03, 163 65 M163 65 C129.81 64.85, 91.91 68.18, 0 65 M163 65 C119.22 64.33, 77.32 64.33, 0 65 M0 65 C0.44 49.56, 2.01 33.69, 0 0 M0 65 C0.72 43.89, -1.13 21.71, 0 0" stroke="#868e96" stroke-width="2" fill="none"></path></g><g stroke-linecap="round" transform="translate(223 10) rotate(0 75 32.5)"><path d="M0 0 C57.31 2.21, 111.94 -1.41, 150 0 M0 0 C44.69 0.16, 91.22 -0.51, 150 0 M150 0 C150.28 14.4, 148.73 29.05, 150 65 M150 0 C150.8 14.25, 149.35 28.66, 150 65 M150 65 C91.66 65.71, 34.4 62.49, 0 65 M150 65 C106.15 63.64, 61.68 63.4, 0 65 M0 65 C1.53 45.5, 0.66 29.55, 0 0 M0 65 C-1.5 39.05, -1.45 12.8, 0 0" stroke="#868e96" stroke-width="2" fill="none"></path></g><g stroke-linecap="round" transform="translate(223 530) rotate(0 75 32.5)"><path d="M0 0 C40.73 -3.14, 84.58 -0.12, 150 0 M0 0 C43.79 -0.66, 85.96 0.57, 150 0 M150 0 C148.33 24.26, 148.45 49.12, 150 65 M150 0 C149.54 21.19, 151.22 44.19, 150 65 M150 65 C115.48 64.99, 82.29 64.45, 0 65 M150 65 C112.46 63.4, 76.1 64.15, 0 65 M0 65 C0.14 47.85, 1.44 31.08, 0 0 M0 65 C-0.25 41.94, 0.39 20.54, 0 0" stroke="#868e96" stroke-width="2" fill="none"></path></g><g stroke-linecap="round" transform="translate(423 10) rotate(0 75 32.5)"><path d="M0 0 C59.6 2.6, 118.88 -0.15, 150 0 M0 0 C44.18 1.57, 90.63 0.96, 150 0 M150 0 C147.94 19.73, 150.12 39.44, 150 65 M150 0 C150.28 18.53, 148.7 34.7, 150 65 M150 65 C91.11 62.03, 31.46 63.88, 0 65 M150 65 C112.92 63.79, 76.02 64.58, 0 65 M0 65 C1.73 51.95, 0.69 33.25, 0 0 M0 65 C0.36 46.99, 0.79 27.35, 0 0" stroke="#868e96" stroke-width="2" fill="none"></path></g><g stroke-linecap="round" transform="translate(423 530) rotate(0 75 32.5)"><path d="M0 0 C32.14 -2.42, 64.72 -0.15, 150 0 M0 0 C35.68 -0.9, 69.84 -1.67, 150 0 M150 0 C150.16 20.73, 148.91 37.35, 150 65 M150 0 C149.79 16.26, 151.45 33.07, 150 65 M150 65 C114.31 63.47, 79.71 62.16, 0 65 M150 65 C116.5 65.7, 82.8 65.26, 0 65 M0 65 C0.27 41.19, -0.97 19.23, 0 0 M0 65 C0.37 48.77, 0.4 35, 0 0" stroke="#868e96" stroke-width="2" fill="none"></path></g><g stroke-linecap="round" transform="translate(623.0000000000002 10) rotate(0 75 32.5)"><path d="M0 0 C55.03 1.92, 108.74 -0.47, 150 0 M0 0 C53.47 -0.76, 107.05 -0.7, 150 0 M150 0 C149.62 19.78, 149.36 44.61, 150 65 M150 0 C150.43 25.3, 148.82 51.26, 150 65 M150 65 C118.37 63.54, 87.35 64.51, 0 65 M150 65 C104.83 66.44, 61.43 67.09, 0 65 M0 65 C-0.64 37.52, -1.57 12.96, 0 0 M0 65 C0.12 43.79, 0.3 22.06, 0 0" stroke="#868e96" stroke-width="2" fill="none"></path></g><g stroke-linecap="round" transform="translate(623.0000000000002 530) rotate(0 75 32.5)"><path d="M0 0 C33.02 -2.17, 69.86 0.82, 150 0 M0 0 C44.35 0.47, 88.99 1.56, 150 0 M150 0 C148.95 25.08, 151.71 45.34, 150 65 M150 0 C149.9 16.44, 149.63 32.5, 150 65 M150 65 C104.05 63.53, 61.16 63.47, 0 65 M150 65 C94.12 66.44, 38.42 65.92, 0 65 M0 65 C-1.17 50.8, 0.85 37.81, 0 0 M0 65 C0.28 52.1, 0.05 37.45, 0 0" stroke="#868e96" stroke-width="2" fill="none"></path></g><g stroke-linecap="round"><g transform="translate(91.5 75) rotate(0 0 227.5)"><path d="M0 0 C-0.91 156.67, -1.49 311.9, 0 455 M0 0 C0.15 99.28, 0.29 198.11, 0 455" stroke="#868e96" stroke-width="1" fill="none"></path></g></g><mask></mask><g stroke-linecap="round"><g transform="translate(298 75) rotate(0 0 227.5)"><path d="M0 0 C1.19 101.59, 0.45 203.29, 0 455 M0 0 C0.94 101.66, 0.26 203.41, 0 455" stroke="#868e96" stroke-width="1" fill="none"></path></g></g><mask></mask><g stroke-linecap="round"><g transform="translate(498.0000000000002 75) rotate(0 0 227.5)"><path d="M0 0 C-0.88 169.8, -0.82 339.88, 0 455 M0 0 C0.9 151.14, 1.7 303.13, 0 455" stroke="#868e96" stroke-width="1" fill="none"></path></g></g><mask></mask><g stroke-linecap="round"><g transform="translate(698.0000000000002 75) rotate(0 0 227.5)"><path d="M0 0 C-2.5 134.12, -1.47 268.23, 0 455 M0 0 C-1.44 123.49, -2.19 245.86, 0 455" stroke="#868e96" stroke-width="1" fill="none"></path></g></g><mask></mask><g mask="url(#mask-QDcxZOjQnVTRAwqP0Q1Wn)" stroke-linecap="round"><g transform="translate(92 119) rotate(0 302.75 0)"><path d="M0.37 0.39 C101.4 0.48, 505.54 -0.2, 606.22 -0.36 M-0.9 -0.45 C100.04 -0.1, 504.36 0.83, 605.66 1" stroke="#868e96" stroke-width="2" fill="none"></path></g><g transform="translate(92 119) rotate(0 302.75 0)"><path d="M582.15 9.5 C589.92 8.08, 595.74 2.62, 605.66 1 M582.15 9.5 C587.38 6.63, 595.09 4.53, 605.66 1" stroke="#868e96" stroke-width="2" fill="none"></path></g><g transform="translate(92 119) rotate(0 302.75 0)"><path d="M582.18 -7.6 C589.82 -3.89, 595.62 -4.2, 605.66 1 M582.18 -7.6 C587.54 -6.07, 595.25 -3.77, 605.66 1" stroke="#868e96" stroke-width="2" fill="none"></path></g></g><mask id="mask-QDcxZOjQnVTRAwqP0Q1Wn"><rect x="0" y="0" fill="#fff" width="797.5" height="219"></rect><rect x="302.6750030517578" y="109" fill="#000" width="184.14999389648438" height="20" opacity="1"></rect></mask><g mask="url(#mask-GXVo0M4cNKsF9wqGjCuy9)" stroke-linecap="round"><g transform="translate(697.5000000000002 173) rotate(0 -302.75 0)"><path d="M0.72 -0.36 C-100.42 -0.51, -505.65 -0.76, -606.52 -0.51" stroke="#868e96" stroke-width="2.5" fill="none" stroke-dasharray="1.5 8"></path></g><g transform="translate(697.5000000000002 173) rotate(0 -302.75 0)"><path d="M-583.03 -9.08 C-591.36 -7.8, -599.38 -1.62, -606.52 -0.51" stroke="#868e96" stroke-width="2.5" fill="none" stroke-dasharray="1.5 6"></path></g><g transform="translate(697.5000000000002 173) rotate(0 -302.75 0)"><path d="M-583.02 8.02 C-591.4 3.65, -599.43 4.18, -606.52 -0.51" stroke="#868e96" stroke-width="2.5" fill="none" stroke-dasharray="1.5 6"></path></g></g><mask id="mask-GXVo0M4cNKsF9wqGjCuy9"><rect x="0" y="0" fill="#fff" width="1403.0000000000002" height="273"></rect><rect x="299.65000152587913" y="163" fill="#000" width="190.1999969482422" height="20" opacity="1"></rect></mask><g mask="url(#mask-xXRMTwP73l300bAaB_n1F)" stroke-linecap="round"><g transform="translate(92 227) rotate(0 102.75 0)"><path d="M-1.02 -0.51 C33.28 -0.26, 172.22 1.14, 206.49 1.14 M0.65 -1.83 C34.81 -1.85, 171.67 -0.77, 206.07 -0.39" stroke="#868e96" stroke-width="2" fill="none"></path></g><g transform="translate(92 227) rotate(0 102.75 0)"><path d="M182.5 7.95 C190.16 6.8, 201.4 0.65, 206.07 -0.39 M182.5 7.95 C187.72 5.84, 193.44 3.26, 206.07 -0.39" stroke="#868e96" stroke-width="2" fill="none"></path></g><g transform="translate(92 227) rotate(0 102.75 0)"><path d="M182.65 -9.15 C190.21 -4.14, 201.4 -4.13, 206.07 -0.39 M182.65 -9.15 C187.99 -6.92, 193.67 -5.15, 206.07 -0.39" stroke="#868e96" stroke-width="2" fill="none"></path></g></g><mask id="mask-xXRMTwP73l300bAaB_n1F"><rect x="0" y="0" fill="#fff" width="397.5" height="327"></rect><rect x="147.7125015258789" y="217" fill="#000" width="94.07499694824219" height="20" opacity="1"></rect></mask><g mask="url(#mask-z35bSPBuqwF8oThjQNC1r)" stroke-linecap="round"><g transform="translate(297.5 281) rotate(0 -102.75 0)"><path d="M0.99 1.14 C-33.24 1.13, -172.17 -0.29, -206.4 -0.55" stroke="#868e96" stroke-width="2.5" fill="none" stroke-dasharray="1.5 8"></path></g><g transform="translate(297.5 281) rotate(0 -102.75 0)"><path d="M-182.83 -8.89 C-186.04 -8.39, -193.93 -3.27, -206.4 -0.55" stroke="#868e96" stroke-width="2.5" fill="none" stroke-dasharray="1.5 6"></path></g><g transform="translate(297.5 281) rotate(0 -102.75 0)"><path d="M-182.98 8.21 C-186.09 5.02, -193.94 6.46, -206.4 -0.55" stroke="#868e96" stroke-width="2.5" fill="none" stroke-dasharray="1.5 6"></path></g></g><mask id="mask-z35bSPBuqwF8oThjQNC1r"><rect x="0" y="0" fill="#fff" width="603" height="381"></rect><rect x="134.5250015258789" y="271" fill="#000" width="120.44999694824219" height="20" opacity="1"></rect></mask><g mask="url(#mask-y8_DCrUGjnY_n-A_CtG3k)" stroke-linecap="round"><g transform="translate(92 335) rotate(0 202.75 0)"><path d="M-0.9 -0.55 C66.7 -0.81, 339 -0.52, 406.6 -0.45 M0.83 1.78 C68.28 2.19, 338.51 0.96, 406.23 0.85" stroke="#868e96" stroke-width="2" fill="none"></path></g><g transform="translate(92 335) rotate(0 202.75 0)"><path d="M382.76 9.48 C390.75 8.18, 399.9 1.66, 406.23 0.85 M382.76 9.48 C389.66 6.54, 395.85 3.79, 406.23 0.85" stroke="#868e96" stroke-width="2" fill="none"></path></g><g transform="translate(92 335) rotate(0 202.75 0)"><path d="M382.71 -7.62 C390.88 -2.37, 400.05 -2.34, 406.23 0.85 M382.71 -7.62 C389.45 -5.56, 395.67 -3.33, 406.23 0.85" stroke="#868e96" stroke-width="2" fill="none"></path></g></g><mask id="mask-y8_DCrUGjnY_n-A_CtG3k"><rect x="0" y="0" fill="#fff" width="597.5" height="435"></rect><rect x="228.5250015258789" y="325" fill="#000" width="132.4499969482422" height="20" opacity="1"></rect></mask><g mask="url(#mask-XXtGL_ZSaeis7eYnk4gzt)" stroke-linecap="round"><g transform="translate(497.5000000000002 389) rotate(0 -202.75 0)"><path d="M1.1 -0.45 C-66.47 -0.37, -338.37 -0.06, -406.33 -0.1" stroke="#868e96" stroke-width="2.5" fill="none" stroke-dasharray="1.5 8"></path></g><g transform="translate(497.5000000000002 389) rotate(0 -202.75 0)"><path d="M-382.84 -8.66 C-388.92 -7.9, -393.62 -6.51, -406.33 -0.1" stroke="#868e96" stroke-width="2.5" fill="none" stroke-dasharray="1.5 6"></path></g><g transform="translate(497.5000000000002 389) rotate(0 -202.75 0)"><path d="M-382.84 8.45 C-388.83 5.35, -393.54 2.89, -406.33 -0.1" stroke="#868e96" stroke-width="2.5" fill="none" stroke-dasharray="1.5 6"></path></g></g><mask id="mask-XXtGL_ZSaeis7eYnk4gzt"><rect x="0" y="0" fill="#fff" width="1003.0000000000002" height="489"></rect><rect x="228.40000152587913" y="379" fill="#000" width="132.6999969482422" height="20" opacity="1"></rect></mask><g mask="url(#mask-9RkqaEYzCdq1XdYgUkoUF)" stroke-linecap="round"><g transform="translate(92 490) rotate(0 102.75 0)"><path d="M-0.83 -0.1 C33.04 -0.13, 169.96 -0.56, 204.34 -0.65 M0.93 -1.19 C35.06 -1.04, 172.49 0.29, 206.45 0.54" stroke="#868e96" stroke-width="2" fill="none"></path></g><g transform="translate(92 490) rotate(0 102.75 0)"><path d="M182.88 8.89 C191.98 3.86, 200.28 2.43, 206.45 0.54 M182.88 8.89 C188.52 6.99, 194.29 5.72, 206.45 0.54" stroke="#868e96" stroke-width="2" fill="none"></path></g><g transform="translate(92 490) rotate(0 102.75 0)"><path d="M183.03 -8.21 C192.01 -6.55, 200.25 -1.28, 206.45 0.54 M183.03 -8.21 C188.51 -5.91, 194.24 -2.97, 206.45 0.54" stroke="#868e96" stroke-width="2" fill="none"></path></g></g><mask id="mask-9RkqaEYzCdq1XdYgUkoUF"><rect x="0" y="0" fill="#fff" width="397.5" height="590"></rect><rect x="143.07500076293945" y="480" fill="#000" width="103.3499984741211" height="20" opacity="1"></rect></mask><g stroke-linecap="round"><g transform="translate(81.5 409) rotate(0 113.25 0)"><path d="M0 0 C51.32 1.8, 103.57 0.67, 226.5 0" stroke="#868e96" stroke-width="2.5" fill="none" stroke-dasharray="1.5 8"></path></g></g><mask></mask><g stroke-linecap="round"><g transform="translate(308 409) rotate(0 0 50.5)"><path d="M0 0 C-1.63 19.17, -2.12 40.71, 0 101" stroke="#868e96" stroke-width="2.5" fill="none" stroke-dasharray="1.5 8"></path></g></g><mask></mask><g stroke-linecap="round"><g transform="translate(81.5 510) rotate(0 113.25 0)"><path d="M0 0 C65.68 0.99, 133.98 0.94, 226.5 0" stroke="#868e96" stroke-width="2.5" fill="none" stroke-dasharray="1.5 8"></path></g></g><mask></mask><g stroke-linecap="round"><g transform="translate(81.5 409) rotate(0 0 50.5)"><path d="M0 0 C-0.86 22.77, 0.71 45.11, 0 101" stroke="#868e96" stroke-width="2.5" fill="none" stroke-dasharray="1.5 8"></path></g></g><mask></mask><g transform="translate(151.26667022705078 417) rotate(0 74.25 10)"><text x="0" y="14.016" font-family="Virgil, Segoe UI Emoji" font-size="16px" fill="#868e96" text-anchor="start" style="white-space: pre;" direction="ltr" dominant-baseline="alphabetic">[Payment Success]</text></g><g stroke-linecap="round" transform="translate(81.5 409) rotate(0 17 15)"><path d="M0.42 -0.77 L34.9 -0.94 L33 29.01 L-0.69 30.45" stroke="none" stroke-width="0" fill="#e9ecef"></path><path d="M0 0 C9.7 0.51, 19.73 1.09, 34 0 M0 0 C11.32 -0.29, 23.36 0.21, 34 0 M34 0 C34.54 10.24, 34.7 19.78, 34 30 M34 0 C33.68 8.88, 33.52 17.45, 34 30 M34 30 C27.31 29.4, 19.39 29.73, 0 30 M34 30 C26.88 30.37, 20.65 30.46, 0 30 M0 30 C-0.56 20.18, -0.46 8.81, 0 0 M0 30 C-0.43 19.27, 0.17 8.23, 0 0" stroke="#868e96" stroke-width="2" fill="none"></path></g><g transform="translate(22.237503051757812 32.5) rotate(0 69.26249694824219 10)"><text x="69.26249694824219" y="14.016" font-family="Virgil, Segoe UI Emoji" font-size="16px" fill="#868e96" text-anchor="middle" style="white-space: pre;" direction="ltr" dominant-baseline="alphabetic">Application Server</text></g><g transform="translate(22.237503051757812 552.5) rotate(0 69.26249694824219 10)"><text x="69.26249694824219" y="14.016" font-family="Virgil, Segoe UI Emoji" font-size="16px" fill="#868e96" text-anchor="middle" style="white-space: pre;" direction="ltr" dominant-baseline="alphabetic">Application Server</text></g><g transform="translate(229.9749984741211 32.5) rotate(0 68.0250015258789 10)"><text x="68.0250015258789" y="14.016" font-family="Virgil, Segoe UI Emoji" font-size="16px" fill="#868e96" text-anchor="middle" style="white-space: pre;" direction="ltr" dominant-baseline="alphabetic">Database Server</text></g><g transform="translate(229.9749984741211 552.5) rotate(0 68.0250015258789 10)"><text x="68.0250015258789" y="14.016" font-family="Virgil, Segoe UI Emoji" font-size="16px" fill="#868e96" text-anchor="middle" style="white-space: pre;" direction="ltr" dominant-baseline="alphabetic">Database Server</text></g><g transform="translate(437.4375 32.5) rotate(0 60.5625 10)"><text x="60.5625" y="14.016" font-family="Virgil, Segoe UI Emoji" font-size="16px" fill="#868e96" text-anchor="middle" style="white-space: pre;" direction="ltr" dominant-baseline="alphabetic">Payment Server</text></g><g transform="translate(437.4375 552.5) rotate(0 60.5625 10)"><text x="60.5625" y="14.016" font-family="Virgil, Segoe UI Emoji" font-size="16px" fill="#868e96" text-anchor="middle" style="white-space: pre;" direction="ltr" dominant-baseline="alphabetic">Payment Server</text></g><g transform="translate(645.4249992370608 32.5) rotate(0 52.57500076293945 10)"><text x="52.57500076293945" y="14.016" font-family="Virgil, Segoe UI Emoji" font-size="16px" fill="#868e96" text-anchor="middle" style="white-space: pre;" direction="ltr" dominant-baseline="alphabetic">OAuth Server</text></g><g transform="translate(645.4249992370608 552.5) rotate(0 52.57500076293945 10)"><text x="52.57500076293945" y="14.016" font-family="Virgil, Segoe UI Emoji" font-size="16px" fill="#868e96" text-anchor="middle" style="white-space: pre;" direction="ltr" dominant-baseline="alphabetic">OAuth Server</text></g><g transform="translate(302.6750030517578 109) rotate(0 91.98570768757259 10.2736189267319)"><text x="92.07499694824219" y="14.016" font-family="Virgil, Segoe UI Emoji" font-size="16px" fill="#868e96" text-anchor="middle" style="white-space: pre;" direction="ltr" dominant-baseline="alphabetic">Request Authentication</text></g><g transform="translate(299.65000152587913 163) rotate(0 94.95316841155295 9.513962585270178)"><text x="95.0999984741211" y="14.016" font-family="Virgil, Segoe UI Emoji" font-size="16px" fill="#868e96" text-anchor="middle" style="white-space: pre;" direction="ltr" dominant-baseline="alphabetic">Authentication Response</text></g><g transform="translate(147.7125015258789 217) rotate(0 47.02599494010212 9.655255741590395)"><text x="47.037498474121094" y="14.016" font-family="Virgil, Segoe UI Emoji" font-size="16px" fill="#868e96" text-anchor="middle" style="white-space: pre;" direction="ltr" dominant-baseline="alphabetic">Query Data</text></g><g transform="translate(134.5250015258789 271) rotate(0 60.27315771132709 10.294539169967152)"><text x="60.224998474121094" y="14.016" font-family="Virgil, Segoe UI Emoji" font-size="16px" fill="#868e96" text-anchor="middle" style="white-space: pre;" direction="ltr" dominant-baseline="alphabetic">Data Response</text></g><g transform="translate(228.5250015258789 325) rotate(0 66.32527195960284 10.600728583947841)"><text x="66.2249984741211" y="14.016" font-family="Virgil, Segoe UI Emoji" font-size="16px" fill="#868e96" text-anchor="middle" style="white-space: pre;" direction="ltr" dominant-baseline="alphabetic">Initiate Payment</text></g><g transform="translate(228.40000152587913 379) rotate(0 66.48326541930436 9.73001571797198)"><text x="66.3499984741211" y="14.016" font-family="Virgil, Segoe UI Emoji" font-size="16px" fill="#868e96" text-anchor="middle" style="white-space: pre;" direction="ltr" dominant-baseline="alphabetic">Payment Success</text></g><g transform="translate(143.07500076293945 480) rotate(0 51.73327923385892 9.675976130692277)"><text x="51.67499923706055" y="14.016" font-family="Virgil, Segoe UI Emoji" font-size="16px" fill="#868e96" text-anchor="middle" style="white-space: pre;" direction="ltr" dominant-baseline="alphabetic">Record Order</text></g><g transform="translate(86.57499980926514 414) rotate(0 11.925000190734863 10)"><text x="11.925000190734863" y="14.016" font-family="Virgil, Segoe UI Emoji" font-size="16px" fill="#868e96" text-anchor="middle" style="white-space: pre;" direction="ltr" dominant-baseline="alphabetic">alt</text></g></svg>